<svg width="28" height="28" viewBox="0 0 28 28" fill="none" xmlns="http://www.w3.org/2000/svg">
	<path fill-rule="evenodd" clip-rule="evenodd" d="M14.0002 0.00025251C21.7321 0.000272462 28 6.26825 28 14.0002C28 21.7321 21.732 28 14.0001 28C6.26817 28 0.000232125 21.732 0.000252077 14.0001C-0.0221215 10.2803 1.44568 6.70634 4.07604 4.07599C6.7064 1.44564 10.2803 -0.0221403 14.0002 0.00025251V0.00025251ZM7.01532 8.1593V10.4776H20.9851V8.1593H7.01532ZM20.9851 19.8409V12.8259H7.01532V19.8409H9.33349V17.1915C9.33349 16.4388 9.51415 16.0173 9.78507 15.7162C10.1169 15.3519 10.5869 15.1442 11.0797 15.1442C11.5725 15.1442 12.0425 15.3519 12.3743 15.7162C12.6454 16.0173 12.826 16.4388 12.826 17.1915V19.8409H15.1744V17.1915C15.1744 16.4388 15.355 16.0173 15.6259 15.7162C15.9577 15.3519 16.4277 15.1442 16.9206 15.1442C17.4134 15.1442 17.8834 15.3519 18.2152 15.7162C18.4861 16.0173 18.6668 16.4388 18.6668 17.1915V19.8409H20.9851Z" fill="white"/>
</svg>
